:SAMPLES-PER-SECOND 30
:FULLY-SPECIFIED
:DEGREES
82
root  -37.0591 36.2151 -28.3578 -88.4748 -84.3491 112.961
RightUpLeg  -69.3936 -19.4886 12.8227
RightLeg  41.1577 -0.378666 -0.650784
RightFoot  1.01473 1.24714 -11.4057
RightToes  0.000482159 0.542163 -0.142577
Spine  72.206 -6.07634 9.14938
Spine1  6.06618 1.79782 -4.35577
HEad  -40.6864 -11.7073 4.88212
LeftShoulder1  8.33215 -28.1474 -19.6118
LeftArm  -63.9982 -61.6095 20.271
LeftForeArm  14.4405 -7.79799 -1.16347
LeftHand  -0.25398 0.0180481 5.50724
RightShoulder  3.50146 16.3608 10.3695
RightArm  -61.877 51.4077 -24.7271
RightForeArm  -9.32833 -2.29699 1.70678
RightHand  -1.1117 6.95713 -10.8503
LeftUpLeg  -64.1472 10.7307 -14.483
LeftLeg  34.3998 -1.56065 -0.779035
LeftFoot  3.87062 -0.448313 3.19085
LeftToes  1.06247e-005 4.65855e-005 -8.18501e-006
83
root  -37.636 35.9456 -28.4586 -89.3588 -84.2655 116.456
RightUpLeg  -72.665 -18.7712 13.7394
RightLeg  43.7251 -0.569665 -0.893759
RightFoot  -1.05776 1.0123 -11.2811
RightToes  0.000482159 0.542163 -0.142577
Spine  74.1583 -6.09097 8.77853
Spine1  4.69019 1.5988 -4.492
HEad  -41.8073 -10.9137 4.75526
LeftShoulder1  8.30043 -29.4089 -18.3962
LeftArm  -72.2021 -61.4599 29.5811
LeftForeArm  8.86446 -7.05403 -0.612865
LeftHand  -0.25398 0.0180481 5.50724
RightShoulder  2.98735 16.2829 7.53646
RightArm  -67.7043 50.7422 -30.5039
RightForeArm  -13.145 -1.91796 1.07869
RightHand  -1.01315 7.47566 -9.56863
LeftUpLeg  -67.6711 9.96333 -14.0427
LeftLeg  37.9167 -0.667333 -0.184044
LeftFoot  1.37424 -0.30283 2.61789
LeftToes  1.06247e-005 4.65855e-005 -8.18501e-006
84
root  -38.1996 35.7291 -28.514 -92.4821 -84.3923 122.224
RightUpLeg  -75.5112 -17.9089 14.8569
RightLeg  45.5487 -0.516569 -0.88915
RightFoot  -2.45818 0.853348 -11.1525
RightToes  0.000482159 0.542163 -0.142577
Spine  75.5484 -5.76968 8.20852
Spine1  3.87045 1.56689 -4.40715
HEad  -42.5416 -10.1517 4.48794
LeftShoulder1  7.86967 -29.9663 -16.5457
LeftArm  -78.414 -60.7026 35.8941
LeftForeArm  4.70273 -7.24113 0.0572304
LeftHand  -0.25398 0.0180481 5.50724
RightShoulder  1.97957 15.0795 2.50419
RightArm  -71.2366 50.4421 -31.0591
RightForeArm  -17.6466 -1.39652 0.272349
RightHand  -0.986791 8.45764 -8.72245
LeftUpLeg  -70.7863 9.47163 -13.4718
LeftLeg  40.1709 0.0198818 0.401009
LeftFoot  -0.627521 -0.155066 1.71197
LeftToes  1.06247e-005 4.65855e-005 -8.18501e-006
85
root  -38.7221 35.5409 -28.5087 -100.596 -84.6514 132.684
RightUpLeg  -77.7347 -16.6623 15.8954
RightLeg  46.9379 -0.526813 -0.94279
RightFoot  -3.33528 0.745015 -10.9211
RightToes  0.000482159 0.542163 -0.142577
Spine  76.4966 -5.20855 7.48572
Spine1  3.54122 1.56123 -4.33793
HEad  -42.9975 -9.04705 4.13009
LeftShoulder1  6.9985 -29.7739 -13.8606
LeftArm  -82.0806 -59.5884 38.6391
LeftForeArm  1.45689 -8.34993 0.80543
LeftHand  -0.25398 0.0180481 5.50724
RightShoulder  0.925943 12.7968 -3.12232
RightArm  -74.7792 51.0212 -27.6422
RightForeArm  -19.8707 0.49446 -0.928494
RightHand  -0.961349 9.23447 -8.10078
LeftUpLeg  -73.6158 9.60523 -13.0581
LeftLeg  42.1277 0.391225 0.775908
LeftFoot  -1.32254 -0.17536 2.09596
LeftToes  1.06247e-005 4.65855e-005 -8.18501e-006
86
root  -39.1837 35.3795 -28.4735 -109.774 -84.7742 143.666
RightUpLeg  -79.3038 -15.2913 16.3525
RightLeg  48.2273 -0.869167 -1.39429
RightFoot  -4.21059 0.636743 -10.6338
RightToes  0.000482159 0.542163 -0.142577
Spine  77.0979 -4.73735 6.58967
Spine1  3.64781 1.22695 -4.35804
HEad  -43.3959 -7.46724 3.86671
LeftShoulder1  5.96033 -28.7584 -11.0871
LeftArm  -84.7215 -58.422 38.8148
LeftForeArm  -2.17153 -10.4976 1.48066
LeftHand  -0.25398 0.0180481 5.50724
RightShoulder  0.292127 10.2829 -7.15064
RightArm  -79.2522 51.8277 -22.5527
RightForeArm  -20.0595 5.4523 -1.75906
RightHand  -0.814416 9.22196 -6.94221
LeftUpLeg  -75.9104 9.85714 -12.6427
LeftLeg  44.1197 0.826909 1.26761
LeftFoot  -1.99426 -0.222648 2.86891
LeftToes  1.06247e-005 4.65855e-005 -8.18501e-006
87
root  -39.583 35.2601 -28.448 -110.305 -84.8813 145.278
RightUpLeg  -80.3482 -14.6602 16.106
RightLeg  49.5753 -1.37464 -2.09339
RightFoot  -5.14277 0.540392 -10.5833
RightToes  0.000482159 0.542163 -0.142577
Spine  77.4378 -4.8412 5.7199
Spine1  4.42757 0.245294 -4.24695
HEad  -43.9648 -5.6293 3.81345
LeftShoulder1  5.09931 -26.6328 -9.42613
LeftArm  -90.949 -57.7002 37.7684
LeftForeArm  -3.29989 -14.4156 1.09377
LeftHand  -0.25398 0.0180481 5.50724
RightShoulder  0.0766399 8.36381 -8.84455
RightArm  -84.4638 52.0982 -18.0433
RightForeArm  -18.8295 12.8147 -0.535466
RightHand  -0.509963 8.53897 -4.71265
LeftUpLeg  -77.0918 9.31959 -12.0854
LeftLeg  45.5549 1.38346 1.92709
LeftFoot  -3.052 -0.189093 2.85568
LeftToes  1.06247e-005 4.65855e-005 -8.18501e-006
88
root  -39.9332 35.1684 -28.4079 -110.205 -84.8596 145.97
RightUpLeg  -81.0218 -14.002 15.4493
RightLeg  50.6404 -1.90609 -2.86614
RightFoot  -5.72091 0.486911 -10.6622
RightToes  0.000482159 0.542163 -0.142577
Spine  77.594 -5.03872 4.89732
Spine1  5.54579 -0.569599 -4.44648
HEad  -44.6181 -4.23698 3.92186
LeftShoulder1  4.57715 -23.9946 -9.16629
LeftArm  -102.096 -57.6729 35.8776
LeftForeArm  1.83303 -19.8354 -1.989
LeftHand  -0.25398 0.0180481 5.50724
RightShoulder  0.0863787 7.02161 -8.65626
RightArm  -91.0967 51.8568 -15.7451
RightForeArm  -14.2028 19.5001 3.3112
RightHand  -0.150463 7.57939 -1.80564
LeftUpLeg  -77.8344 8.73237 -11.6136
LeftLeg  46.616 1.85056 2.52076
LeftFoot  -3.89802 -0.146602 2.61925
LeftToes  1.06247e-005 4.65855e-005 -8.18501e-006
89
root  -40.2358 35.0759 -28.3473 -112.445 -84.655 148.892
RightUpLeg  -81.5697 -13.168 14.6502
RightLeg  51.5762 -2.427 -3.66534
RightFoot  -6.20902 0.423201 -10.3303
RightToes  0.000482159 0.542163 -0.142577
Spine  77.4521 -5.04094 4.48216
Spine1  6.46758 -0.945725 -4.7123
HEad  -45.0859 -3.73382 4.12981
LeftShoulder1  4.31873 -22.1012 -9.42859
LeftArm  -107.966 -58.2141 33.5025
LeftForeArm  5.60425 -24.5599 -5.15923
LeftHand  -0.25398 0.0180481 5.50724
RightShoulder  0.185874 6.07891 -7.38528
RightArm  -92.1005 51.7153 -15.4721
RightForeArm  -12.6911 24.0194 5.85379
RightHand  0.127274 6.61501 0.779445
LeftUpLeg  -78.6231 8.65029 -11.663
LeftLeg  47.7114 2.03855 2.83204
LeftFoot  -4.32884 -0.162102 3.07411
LeftToes  1.06247e-005 4.65855e-005 -8.18501e-006
90
root  -40.4705 35.0177 -28.2825 -115.453 -84.304 152.394
RightUpLeg  -81.8944 -12.4015 13.8544
RightLeg  52.2465 -2.7799 -4.2412
RightFoot  -6.61907 0.352945 -9.61683
RightToes  0.000482159 0.542163 -0.142577
Spine  77.1409 -4.976 4.36286
Spine1  7.03581 -1.08123 -4.99992
HEad  -45.3748 -3.63855 4.44371
LeftShoulder1  4.13657 -21.2784 -9.24557
LeftArm  -106.441 -58.5349 31.5468
LeftForeArm  4.37687 -27.268 -5.63958
LeftHand  -0.25398 0.0180481 5.50724
RightShoulder  0.291535 5.66007 -5.96965
RightArm  -90.3743 51.4622 -15.8129
RightForeArm  -12.7008 27.1861 6.50017
RightHand  0.301976 5.92802 2.6657
LeftUpLeg  -79.2627 9.0005 -12.1279
LeftLeg  48.5959 2.0804 2.96591
LeftFoot  -4.75064 -0.187123 3.74506
LeftToes  1.06247e-005 4.65855e-005 -8.18501e-006
91
root  -40.6266 35.0372 -28.214 -116.654 -83.8921 153.865
RightUpLeg  -81.9212 -11.9845 13.1628
RightLeg  52.3654 -2.82359 -4.3212
RightFoot  -6.52729 0.354767 -9.45096
RightToes  0.000482159 0.542163 -0.142577
Spine  76.8413 -5.09476 4.26315
Spine1  7.3122 -1.18906 -5.40992
HEad  -45.5796 -3.398 4.82866
LeftShoulder1  4.00162 -21.0558 -8.80667
LeftArm  -103.694 -58.1977 29.7082
LeftForeArm  2.88434 -28.3483 -5.97649
LeftHand  -0.25398 0.0180481 5.50724
RightShoulder  0.378251 5.82073 -4.96274
RightArm  -89.1832 50.819 -15.806
RightForeArm  -12.05 29.269 6.97798
RightHand  0.485168 5.7758 4.6126
LeftUpLeg  -79.385 9.25 -12.6208
LeftLeg  48.7721 2.16619 3.08776
LeftFoot  -5.14699 -0.181474 3.9247
LeftToes  1.06247e-005 4.65855e-005 -8.18501e-006
92
root  -40.7197 35.1277 -28.1191 -117.259 -83.4796 154.544
RightUpLeg  -81.6425 -11.7714 12.568
RightLeg  51.9397 -2.76113 -4.16924
RightFoot  -5.90136 0.450433 -10.2694
RightToes  0.000482159 0.542163 -0.142577
Spine  76.5515 -5.38225 4.26866
Spine1  7.35146 -1.20861 -5.90738
HEad  -45.6817 -3.08037 5.26088
LeftShoulder1  4.00059 -21.0688 -8.7918
LeftArm  -99.7865 -57.7957 27.3261
LeftForeArm  0.719399 -29.5643 -6.38943
LeftHand  -0.25398 0.0180481 5.50724
RightShoulder  0.442922 6.29741 -4.42965
RightArm  -88.1097 49.9388 -15.5205
RightForeArm  -11.3336 30.2418 7.19118
RightHand  0.737069 5.88044 7.15494
LeftUpLeg  -79.0168 9.32937 -13.0198
LeftLeg  48.3268 2.29014 3.19235
LeftFoot  -5.21996 -0.180548 3.96342
LeftToes  1.06247e-005 4.65855e-005 -8.18501e-006
93
root  -40.7721 35.2711 -27.9868 -119.088 -83.0283 156.24
RightUpLeg  -80.9628 -11.453 11.8315
RightLeg  51.1439 -2.87123 -4.19674
RightFoot  -5.20623 0.560843 -11.0788
RightToes  0.000482159 0.542163 -0.142577
Spine  76.1409 -5.64211 4.58123
Spine1  7.25202 -1.07144 -6.25061
HEad  -45.6083 -2.98204 5.71859
LeftShoulder1  4.17347 -21.3326 -9.36876
LeftArm  -95.8839 -57.6818 24.6621
LeftForeArm  -0.846476 -30.9961 -6.83298
LeftHand  -0.25398 0.0180481 5.50724
RightShoulder  0.492187 6.82261 -4.147
RightArm  -87.1042 49.0689 -15.2188
RightForeArm  -10.0869 30.4243 7.17615
RightHand  0.933009 5.53527 9.46805
LeftUpLeg  -78.3541 9.58318 -13.4964
LeftLeg  47.5881 2.37447 3.21453
LeftFoot  -5.04215 -0.208598 4.34062
LeftToes  1.06247e-005 4.65855e-005 -8.18501e-006
94
root  -40.7928 35.4821 -27.8213 -121.7 -82.4609 158.487
RightUpLeg  -79.7626 -10.9947 10.7499
RightLeg  49.9294 -3.05953 -4.26012
RightFoot  -4.56578 0.61185 -10.8207
RightToes  0.000482159 0.542163 -0.142577
Spine  75.5393 -5.77832 5.06645
Spine1  7.2071 -0.893641 -6.23449
HEad  -45.3772 -3.0831 6.1084
LeftShoulder1  4.46313 -21.8435 -10.2542
LeftArm  -92.3087 -57.6145 22.2477
LeftForeArm  -1.66979 -31.8206 -7.09126
LeftHand  -0.25398 0.0180481 5.50724
RightShoulder  0.54915 7.34999 -3.81225
RightArm  -85.6938 48.4255 -14.7544
RightForeArm  -8.84829 30.8622 7.22694
RightHand  0.930991 4.6131 10.3785
LeftUpLeg  -77.3401 10.0834 -14.0928
LeftLeg  46.5062 2.43807 3.17353
LeftFoot  -4.82811 -0.23972 4.72326
LeftToes  1.06247e-005 4.65855e-005 -8.18501e-006
95
root  -40.786 35.7719 -27.615 -124.467 -81.7378 160.663
RightUpLeg  -78.0423 -10.5429 9.48191
RightLeg  48.113 -3.05934 -3.99972
RightFoot  -3.66925 0.636525 -9.83329
RightToes  0.000482159 0.542163 -0.142577
Spine  74.7589 -5.83857 5.45214
Spine1  7.37649 -0.776207 -5.94865
HEad  -45.1043 -3.21483 6.42792
LeftShoulder1  4.77647 -22.3829 -11.18
LeftArm  -88.0833 -57.1448 19.5143
LeftForeArm  -2.62093 -32.3458 -7.28218
LeftHand  -0.25398 0.0180481 5.50724
RightShoulder  0.635965 7.91223 -3.22827
RightArm  -83.4514 48.0983 -13.6547
RightForeArm  -8.74655 32.3208 7.60929
RightHand  0.816909 3.70633 10.0676
LeftUpLeg  -75.8022 10.6362 -14.6236
LeftLeg  44.9128 2.56203 3.1447
LeftFoot  -4.54194 -0.254037 4.73703
LeftToes  1.06247e-005 4.65855e-005 -8.18501e-006
96
root  -40.7538 36.1193 -27.3511 -127.805 -80.8169 163.161
RightUpLeg  -75.8635 -10.17 8.31646
RightLeg  45.6903 -2.84588 -3.4462
RightFoot  -2.39396 0.701781 -9.14094
RightToes  0.000482159 0.542163 -0.142577
Spine  73.8262 -5.86773 5.73899
Spine1  7.72829 -0.621299 -5.65791
HEad  -44.8287 -3.50321 6.91418
LeftShoulder1  5.10323 -22.8578 -12.1715
LeftArm  -82.4134 -56.1586 15.4503
LeftForeArm  -3.97725 -33.5772 -7.69128
LeftHand  -0.25398 0.0180481 5.50724
RightShoulder  0.767095 8.45048 -2.26128
RightArm  -80.5047 47.931 -11.6433
RightForeArm  -9.77278 34.7042 8.32836
RightHand  0.734693 3.06299 9.78551
LeftUpLeg  -73.7592 11.2473 -15.0527
LeftLeg  42.8697 2.78466 3.165
LeftFoot  -4.04763 -0.279227 4.7598
LeftToes  1.06247e-005 4.65855e-005 -8.18501e-006
